<?xml version="1.0" standalone="no"?>
<svg id="wave" style="transform:rotate(180deg); transition: 0.3s" viewBox="0 0 1440 170" version="1.1" xmlns="http://www.w3.org/2000/svg"><defs><linearGradient id="sw-gradient-0" x1="0" x2="0" y1="1" y2="0"><stop stop-color="rgba(109, 40, 217, 1)" offset="0%"></stop><stop stop-color="rgba(255, 255, 2555, 1)" offset="100%"></stop></linearGradient></defs><path style="transform:translate(0, 0px); opacity:1" fill="#fff" d="M0,34L30,48.2C60,62,120,91,180,104.8C240,119,300,119,360,104.8C420,91,480,62,540,45.3C600,28,660,23,720,31.2C780,40,840,62,900,70.8C960,79,1020,74,1080,65.2C1140,57,1200,45,1260,51C1320,57,1380,79,1440,96.3C1500,113,1560,125,1620,130.3C1680,136,1740,136,1800,127.5C1860,119,1920,102,1980,90.7C2040,79,2100,74,2160,59.5C2220,45,2280,23,2340,34C2400,45,2460,91,2520,116.2C2580,142,2640,147,2700,150.2C2760,153,2820,153,2880,153C2940,153,3000,153,3060,144.5C3120,136,3180,119,3240,102C3300,85,3360,68,3420,59.5C3480,51,3540,51,3600,65.2C3660,79,3720,108,3780,124.7C3840,142,3900,147,3960,147.3C4020,147,4080,142,4140,124.7C4200,108,4260,79,4290,65.2L4320,51L4320,170L4290,170C4260,170,4200,170,4140,170C4080,170,4020,170,3960,170C3900,170,3840,170,3780,170C3720,170,3660,170,3600,170C3540,170,3480,170,3420,170C3360,170,3300,170,3240,170C3180,170,3120,170,3060,170C3000,170,2940,170,2880,170C2820,170,2760,170,2700,170C2640,170,2580,170,2520,170C2460,170,2400,170,2340,170C2280,170,2220,170,2160,170C2100,170,2040,170,1980,170C1920,170,1860,170,1800,170C1740,170,1680,170,1620,170C1560,170,1500,170,1440,170C1380,170,1320,170,1260,170C1200,170,1140,170,1080,170C1020,170,960,170,900,170C840,170,780,170,720,170C660,170,600,170,540,170C480,170,420,170,360,170C300,170,240,170,180,170C120,170,60,170,30,170L0,170Z"></path></svg>