<?xml version="1.0" standalone="no"?>
<svg xmlns:xlink="http://www.w3.org/1999/xlink" id="wave" style="transform:rotate(180deg); transition: 0.3s" viewBox="0 0 1440 170" version="1.1" xmlns="http://www.w3.org/2000/svg"><defs><linearGradient id="sw-gradient-0" x1="0" x2="0" y1="1" y2="0"><stop stop-color="rgba(252, 211, 77, 1)" offset="0%"/><stop stop-color="rgba(252, 211, 77, 1)" offset="100%"/></linearGradient></defs><path style="transform:translate(0, 0px); opacity:1" fill="url(#sw-gradient-0)" d="M0,102L30,93.5C60,85,120,68,180,73.7C240,79,300,108,360,107.7C420,108,480,79,540,62.3C600,45,660,40,720,42.5C780,45,840,57,900,73.7C960,91,1020,113,1080,116.2C1140,119,1200,102,1260,102C1320,102,1380,119,1440,104.8C1500,91,1560,45,1620,22.7C1680,0,1740,0,1800,0C1860,0,1920,0,1980,5.7C2040,11,2100,23,2160,25.5C2220,28,2280,23,2340,22.7C2400,23,2460,28,2520,34C2580,40,2640,45,2700,56.7C2760,68,2820,85,2880,79.3C2940,74,3000,45,3060,42.5C3120,40,3180,62,3240,79.3C3300,96,3360,108,3420,119C3480,130,3540,142,3600,133.2C3660,125,3720,96,3780,73.7C3840,51,3900,34,3960,22.7C4020,11,4080,6,4140,28.3C4200,51,4260,102,4290,127.5L4320,153L4320,170L4290,170C4260,170,4200,170,4140,170C4080,170,4020,170,3960,170C3900,170,3840,170,3780,170C3720,170,3660,170,3600,170C3540,170,3480,170,3420,170C3360,170,3300,170,3240,170C3180,170,3120,170,3060,170C3000,170,2940,170,2880,170C2820,170,2760,170,2700,170C2640,170,2580,170,2520,170C2460,170,2400,170,2340,170C2280,170,2220,170,2160,170C2100,170,2040,170,1980,170C1920,170,1860,170,1800,170C1740,170,1680,170,1620,170C1560,170,1500,170,1440,170C1380,170,1320,170,1260,170C1200,170,1140,170,1080,170C1020,170,960,170,900,170C840,170,780,170,720,170C660,170,600,170,540,170C480,170,420,170,360,170C300,170,240,170,180,170C120,170,60,170,30,170L0,170Z"/></svg>