<?xml version="1.0" standalone="no"?>
<svg id="wave" style="transform:rotate(180deg); transition: 0.3s" viewBox="0 0 1440 130" version="1.1" xmlns="http://www.w3.org/2000/svg"><defs><linearGradient id="sw-gradient-0" x1="0" x2="0" y1="1" y2="0"><stop stop-color="rgba(67, 56, 202, 1)" offset="0%"></stop><stop stop-color="rgba(67, 56, 202, 1)" offset="100%"></stop></linearGradient></defs><path style="transform:translate(0, 0px); opacity:1" fill="url(#sw-gradient-0)" d="M0,39L30,47.7C60,56,120,74,180,69.3C240,65,300,39,360,32.5C420,26,480,39,540,52C600,65,660,78,720,78C780,78,840,65,900,52C960,39,1020,26,1080,17.3C1140,9,1200,4,1260,17.3C1320,30,1380,61,1440,80.2C1500,100,1560,108,1620,101.8C1680,95,1740,74,1800,54.2C1860,35,1920,17,1980,8.7C2040,0,2100,0,2160,19.5C2220,39,2280,78,2340,88.8C2400,100,2460,82,2520,82.3C2580,82,2640,100,2700,108.3C2760,117,2820,117,2880,104C2940,91,3000,65,3060,47.7C3120,30,3180,22,3240,28.2C3300,35,3360,56,3420,65C3480,74,3540,69,3600,56.3C3660,43,3720,22,3780,30.3C3840,39,3900,78,3960,86.7C4020,95,4080,74,4140,69.3C4200,65,4260,78,4290,84.5L4320,91L4320,130L4290,130C4260,130,4200,130,4140,130C4080,130,4020,130,3960,130C3900,130,3840,130,3780,130C3720,130,3660,130,3600,130C3540,130,3480,130,3420,130C3360,130,3300,130,3240,130C3180,130,3120,130,3060,130C3000,130,2940,130,2880,130C2820,130,2760,130,2700,130C2640,130,2580,130,2520,130C2460,130,2400,130,2340,130C2280,130,2220,130,2160,130C2100,130,2040,130,1980,130C1920,130,1860,130,1800,130C1740,130,1680,130,1620,130C1560,130,1500,130,1440,130C1380,130,1320,130,1260,130C1200,130,1140,130,1080,130C1020,130,960,130,900,130C840,130,780,130,720,130C660,130,600,130,540,130C480,130,420,130,360,130C300,130,240,130,180,130C120,130,60,130,30,130L0,130Z"></path></svg>