<?xml version="1.0" standalone="no"?>
<svg id="wave" style="transform:rotate(180deg); transition: 0.3s" viewBox="0 0 1440 110" version="1.1" xmlns="http://www.w3.org/2000/svg"><defs><linearGradient id="sw-gradient-0" x1="0" x2="0" y1="1" y2="0"><stop stop-color="rgba(109, 40, 217, 1)" offset="0%"></stop><stop stop-color="rgba(109, 40, 217, 1)" offset="100%"></stop></linearGradient></defs><path style="transform:translate(0, 0px); opacity:1" fill="url(#sw-gradient-0)" d="M0,55L30,60.5C60,66,120,77,180,77C240,77,300,66,360,51.3C420,37,480,18,540,9.2C600,0,660,0,720,14.7C780,29,840,59,900,60.5C960,62,1020,37,1080,23.8C1140,11,1200,11,1260,16.5C1320,22,1380,33,1440,42.2C1500,51,1560,59,1620,56.8C1680,55,1740,44,1800,36.7C1860,29,1920,26,1980,25.7C2040,26,2100,29,2160,42.2C2220,55,2280,77,2340,73.3C2400,70,2460,40,2520,36.7C2580,33,2640,55,2700,58.7C2760,62,2820,48,2880,42.2C2940,37,3000,40,3060,47.7C3120,55,3180,66,3240,75.2C3300,84,3360,92,3420,84.3C3480,77,3540,55,3600,53.2C3660,51,3720,70,3780,73.3C3840,77,3900,66,3960,51.3C4020,37,4080,18,4140,18.3C4200,18,4260,37,4290,45.8L4320,55L4320,110L4290,110C4260,110,4200,110,4140,110C4080,110,4020,110,3960,110C3900,110,3840,110,3780,110C3720,110,3660,110,3600,110C3540,110,3480,110,3420,110C3360,110,3300,110,3240,110C3180,110,3120,110,3060,110C3000,110,2940,110,2880,110C2820,110,2760,110,2700,110C2640,110,2580,110,2520,110C2460,110,2400,110,2340,110C2280,110,2220,110,2160,110C2100,110,2040,110,1980,110C1920,110,1860,110,1800,110C1740,110,1680,110,1620,110C1560,110,1500,110,1440,110C1380,110,1320,110,1260,110C1200,110,1140,110,1080,110C1020,110,960,110,900,110C840,110,780,110,720,110C660,110,600,110,540,110C480,110,420,110,360,110C300,110,240,110,180,110C120,110,60,110,30,110L0,110Z"></path></svg>